<?xml version="1.0" encoding="utf-8"?>
<!-- Generator: Adobe Illustrator 26.0.1, SVG Export Plug-In . SVG Version: 6.00 Build 0)  -->
<svg version="1.1" id="Camada_1" xmlns="http://www.w3.org/2000/svg" xmlns:xlink="http://www.w3.org/1999/xlink" x="0px" y="0px"
	 viewBox="0 0 1818.4 1287.7" style="enable-background:new 0 0 1818.4 1287.7;" xml:space="preserve">
<style type="text/css">
	.st0{fill:#2C2C2C;}
	.st1{fill:none;stroke:#FFD700;stroke-width:0.4931;stroke-miterlimit:10;}
	.st2{fill:none;stroke:#FFD700;stroke-width:0.4594;stroke-miterlimit:10;}
	.st3{fill:none;stroke:#FFD700;stroke-width:0.5816;stroke-miterlimit:10;}
	.st4{fill:none;stroke:#FFD700;stroke-width:0.6535;stroke-miterlimit:10;}
	.st5{fill:none;stroke:#FFD700;stroke-width:0.4423;stroke-miterlimit:10;}
	.st6{fill:none;stroke:#FFD700;stroke-width:0.3297;stroke-miterlimit:10;}
	.st7{fill:none;stroke:#FFD700;stroke-width:0.3889;stroke-miterlimit:10;}
	.st8{fill:none;stroke:#FFD700;stroke-width:1.155;stroke-miterlimit:10;}
	.st9{fill:none;stroke:#FFD700;stroke-width:1.0761;stroke-miterlimit:10;}
	.st10{fill:none;stroke:#FFD700;stroke-width:1.3624;stroke-miterlimit:10;}
	.st11{fill:none;stroke:#FFD700;stroke-width:1.5308;stroke-miterlimit:10;}
	.st12{fill:none;stroke:#FFD700;stroke-width:1.036;stroke-miterlimit:10;}
	.st13{fill:none;stroke:#FFD700;stroke-width:0.7723;stroke-miterlimit:10;}
	.st14{fill:none;stroke:#FFD700;stroke-width:0.9109;stroke-miterlimit:10;}
</style>
<g>
	<rect x="-0.3" y="4.8" class="st0" width="1816.7" height="1282.4"/>
</g>
<g>
	<ellipse class="st1" cx="583.5" cy="317.9" rx="118" ry="158.2"/>
	<ellipse class="st2" cx="583.7" cy="317.9" rx="110" ry="147.3"/>
	<ellipse class="st3" cx="583.4" cy="317.7" rx="91.5" ry="123.8"/>
	<ellipse class="st4" cx="583.4" cy="317.7" rx="102.5" ry="139.5"/>
	<ellipse class="st5" cx="583.9" cy="317.1" rx="69" ry="95"/>
	<ellipse class="st6" cx="583.5" cy="317.9" rx="80.3" ry="104"/>
	<ellipse class="st7" cx="583.5" cy="317.8" rx="62.2" ry="81.4"/>
</g>
<g>
	<ellipse class="st1" cx="922.2" cy="1058.1" rx="118" ry="158.2"/>
	<ellipse class="st2" cx="922.4" cy="1058.1" rx="110" ry="147.3"/>
	<ellipse class="st3" cx="922.1" cy="1058" rx="91.5" ry="123.8"/>
	<ellipse class="st4" cx="922.1" cy="1058" rx="102.5" ry="139.5"/>
	<ellipse class="st5" cx="922.6" cy="1057.4" rx="69" ry="94.9"/>
	<ellipse class="st6" cx="922.2" cy="1058.1" rx="80.3" ry="104"/>
	<ellipse class="st7" cx="922.2" cy="1058" rx="62.2" ry="81.4"/>
</g>
<g>
	<ellipse class="st1" cx="1434.4" cy="570.3" rx="118" ry="158.2"/>
	<ellipse class="st2" cx="1434.5" cy="570.3" rx="110" ry="147.3"/>
	<ellipse class="st3" cx="1434.3" cy="570.2" rx="91.5" ry="123.8"/>
	<ellipse class="st4" cx="1434.3" cy="570.2" rx="102.5" ry="139.5"/>
	<ellipse class="st5" cx="1434.7" cy="569.6" rx="69" ry="95"/>
	<ellipse class="st6" cx="1434.4" cy="570.3" rx="80.3" ry="104"/>
	<ellipse class="st7" cx="1434.3" cy="570.2" rx="62.2" ry="81.4"/>
</g>
<g>
	<path class="st8" d="M1521.6,1285.8c1.6-190.7,133.2-346.6,292.7-346.6c0.2,0,0.4,0,0.6,0"/>
	<path class="st9" d="M1541.8,1285.9c1.4-177.9,124-323.3,272.5-323.3c0.8,0,1.6,0,2.3,0"/>
	<path class="st10" d="M1585.1,1286.1c1.6-147.6,104.4-268,228.9-268c0.4,0,0.9,0,1.3,0"/>
	<path class="st11" d="M1556.1,1285.5c1.9-165.2,117.8-300,258-300c0.5,0,1,0,1.5,0"/>
	<path class="st12" d="M1637.3,1287.3c0.5-111.9,79.6-203.6,175.6-203.6c0.6,0,1.1,0,1.7,0"/>
	<path class="st13" d="M1621.9,1287c1-129.7,87.6-235.8,192.4-235.8c0.2,0,0.5,0,0.8,0"/>
	<path class="st14" d="M1662.3,1288.1c0.6-100.8,68.4-183.2,150.5-183.2c0.9,0,1.8,0,2.6,0"/>
</g>
<g>
	<path class="st8" d="M0.3,942.8c0.2,0,0.4,0,0.6,0c159.5,0,291.1,155.9,292.7,346.6"/>
	<path class="st9" d="M-1.4,966.1c0.8,0,1.6,0,2.3,0c148.5,0,271.1,145.4,272.5,323.3"/>
	<path class="st10" d="M-0.1,1021.7c0.4,0,0.9,0,1.3,0c124.5,0,227.3,120.4,228.9,268"/>
	<path class="st11" d="M-0.3,989.1c0.5,0,1,0,1.5,0c140.2,0,256,134.7,258,300"/>
	<path class="st12" d="M0.6,1087.2c0.6,0,1.1,0,1.7,0c96,0,175.2,91.8,175.6,203.6"/>
	<path class="st13" d="M0.2,1054.8c0.2,0,0.5,0,0.8,0c104.9,0,191.4,106.1,192.4,235.8"/>
	<path class="st14" d="M-0.1,1108.5c0.9,0,1.8,0,2.6,0c82.1,0,149.9,82.5,150.5,183.2"/>
</g>
<g>
	<path class="st8" d="M293.5,2.1C291.9,192.8,160.3,348.7,0.8,348.7c-0.2,0-0.4,0-0.6,0"/>
	<path class="st9" d="M273.3,2C272,179.9,149.4,325.3,0.8,325.3c-0.8,0-1.6,0-2.3,0"/>
	<path class="st10" d="M230,1.8c-1.6,147.6-104.4,268-228.9,268c-0.4,0-0.9,0-1.3,0"/>
	<path class="st11" d="M259.1,2.4c-1.9,165.2-117.8,300-258,300c-0.5,0-1,0-1.5,0"/>
	<path class="st12" d="M177.8,0.6C177.3,112.4,98.2,204.2,2.2,204.2c-0.6,0-1.1,0-1.7,0"/>
	<path class="st13" d="M193.3,0.9c-1,129.7-87.6,235.8-192.4,235.8c-0.2,0-0.5,0-0.8,0"/>
	<path class="st14" d="M152.9-0.2C152.2,100.5,84.5,183,2.4,183c-0.9,0-1.8,0-2.6,0"/>
</g>
<g>
	<path class="st8" d="M1816.1,350c-0.2,0-0.4,0-0.6,0c-159.5,0-291.1-155.9-292.7-346.6"/>
	<path class="st9" d="M1817.8,326.6c-0.8,0-1.6,0-2.3,0c-148.5,0-271.1-145.4-272.5-323.3"/>
	<path class="st10" d="M1816.5,271c-0.4,0-0.9,0-1.3,0c-124.5,0-227.3-120.4-228.9-268"/>
	<path class="st11" d="M1816.7,303.7c-0.5,0-1,0-1.5,0c-140.2,0-256-134.7-258-300"/>
	<path class="st12" d="M1815.8,205.5c-0.6,0-1.1,0-1.7,0c-96,0-175.2-91.8-175.6-203.6"/>
	<path class="st13" d="M1816.2,238c-0.2,0-0.5,0-0.8,0C1710.6,238,1624,131.9,1623,2.2"/>
	<path class="st14" d="M1816.5,184.3c-0.9,0-1.8,0-2.6,0c-82.1,0-149.9-82.5-150.5-183.2"/>
</g>
</svg>
