<?xml version="1.0" encoding="utf-8"?>
<!-- Generator: Adobe Illustrator 26.0.1, SVG Export Plug-In . SVG Version: 6.00 Build 0)  -->
<svg version="1.1" xmlns="http://www.w3.org/2000/svg" xmlns:xlink="http://www.w3.org/1999/xlink" x="0px" y="0px"
	 viewBox="0 0 250 250" style="enable-background:new 0 0 250 250;" xml:space="preserve">
<style type="text/css">
	.st0{fill:url(#SVGID_1_);stroke:#0A0902;stroke-miterlimit:10;}
	.st1{fill:url(#SVGID_00000160888068880447861760000005435398267200089784_);stroke:#000000;stroke-miterlimit:10;}
	.st2{fill:url(#SVGID_00000020369153972976226060000009160307922978003338_);stroke:#000000;stroke-miterlimit:10;}
	.st3{fill:url(#SVGID_00000010278358213782420920000013821109821243696022_);stroke:#000000;stroke-miterlimit:10;}
	.st4{fill:url(#SVGID_00000142887271941344876350000016860398589773584029_);stroke:#000000;stroke-miterlimit:10;}
	.st5{fill:url(#SVGID_00000085231788955078101830000005186182495082064259_);stroke:#000000;stroke-miterlimit:10;}
	.st6{fill:url(#SVGID_00000147911624927408905680000015973953303903633297_);stroke:#000000;stroke-miterlimit:10;}
	.st7{fill:url(#SVGID_00000016782007206390031860000014817375201062493319_);stroke:#000000;stroke-miterlimit:10;}
	.st8{fill:url(#SVGID_00000165938790096727574570000012941485206686187912_);stroke:#000000;stroke-miterlimit:10;}
	.st9{fill:url(#SVGID_00000136406231701888698470000013462930880342159804_);stroke:#000000;stroke-miterlimit:10;}
	.st10{fill:url(#SVGID_00000106130560225905626350000012189232931795458964_);stroke:#000000;stroke-miterlimit:10;}
	.st11{fill:url(#SVGID_00000065040242430364195050000006234069487245228425_);stroke:#000000;stroke-miterlimit:10;}
	.st12{fill:url(#SVGID_00000183216121015077695180000017929417979158917055_);stroke:#000000;stroke-miterlimit:10;}
	.st13{fill:url(#SVGID_00000054227970198904102000000002783791565537242784_);stroke:#000000;stroke-miterlimit:10;}
	.st14{fill:#FFF1C0;stroke:#000000;stroke-miterlimit:10;}
	.st15{fill:none;stroke:#000000;stroke-miterlimit:10;}
</style>
<g id="Camada_4">
</g>
<g id="Camada_3">
	<linearGradient id="SVGID_1_" gradientUnits="userSpaceOnUse" x1="172.2873" y1="175.9908" x2="64.8773" y2="3.3401">
		<stop  offset="2.793296e-03" style="stop-color:#F9CF00"/>
		<stop  offset="0.2207" style="stop-color:#DFAD00;stop-opacity:0.9"/>
		<stop  offset="0.3436" style="stop-color:#F8CD00;stop-opacity:0.9"/>
		<stop  offset="0.6453" style="stop-color:#DDAA00"/>
		<stop  offset="0.757" style="stop-color:#F2C500;stop-opacity:0.9"/>
		<stop  offset="1" style="stop-color:#F4C800"/>
	</linearGradient>
	<path class="st0" d="M50.41,70.47c0,0-20.72,34.71-17.26,47.74c1.73,12.69,5.18,23.31,5.18,23.31s4.14,3.69-0.69,12.76l12.09-10.26
		c0,0,1.73,16.57,13.81,35.22c11.05,15.54,9.32,19.34,9.32,19.34L77,181.66c0,0,14.85,25.9,14.85,33.49l3.8-8.63
		c0,0,11.48,16.57,13.33,22.1l2.89-6.56c0,0,16.83,23.48,17.05,26.24c0.22,2.76,5.71-7.35,15.78-23.26
		c2.76,0.69,3.38,6.68,3.38,6.68l11.97-23.83c0,0,4.26,5.87,4.61,9.32c15.52-34.87,16.06-32.55,16.06-32.55l3.32,17.18
		c3.73-4.49,9.8-28.4,15.53-34.35c6.44-6.68,9.67-9.91,8.98-20.66c10.36,9.61,10.36,9.61,10.36,9.61s-5.18-3.19,0-16.79
		c5.18-13.6,6.56-27.41,2.76-35s-14.56-31.77-14.56-31.77s7.36,6.45,23.84,7.93c-10.29-14.39-17.57-8.28-19.64-28.65
		c-2.42-23.83-20.03-29.35-20.03-29.35s-4.49-4.14-22.44-4.83c-17.96-0.69,3.11-9.32,3.11-9.32s-18.3,0.35-27.28,4.83
		c1.38-12.09-0.69-10.36-0.69-10.36s-12.17,6.56-15.06,16.23C122.58-1,113.94,3.06,113.94,3.06l-1.38,10.79
		c0,0-14.85-7.94-27.62-5.18c11.18,7.6,11.18,9.32,11.18,9.32s-31.55-2.04-41.22,8.82c-7.73,8.69-10.46,22.63-11.24,27.85
		c-0.18,1.18-0.4,2.66-1.09,5.42c-0.27,1.06-0.63,2.11-1.05,3.12c-1.8,4.39-1.19,5.98-13.89,14.52
		C35.81,79.51,50.41,70.47,50.41,70.47z"/>
	
		<linearGradient id="SVGID_00000118370117809062619920000016713855426174507136_" gradientUnits="userSpaceOnUse" x1="51.0571" y1="50.7906" x2="107.1149" y2="50.7906">
		<stop  offset="0.512" style="stop-color:#F7E6A4"/>
		<stop  offset="1" style="stop-color:#FFF9C7"/>
	</linearGradient>
	<path style="fill:url(#SVGID_00000118370117809062619920000016713855426174507136_);stroke:#000000;stroke-miterlimit:10;" d="
		M107.11,35.66l-0.19-1.78c0,0,0,0-0.59-2.42s-5.21-3.11-21.44-4.49c-15.88-0.24-23.13,7.94-23.13,7.94
		c-8.33,8.85-10.7,28.31-10.7,28.31l8.98-5.18l-3.45,16.57c0,0,0,0,6.91-12.43c0.35-9.32,7.6-22.79,7.6-22.79s6.91-6.95,25.68-6.9
		L107.11,35.66z"/>
	
		<linearGradient id="SVGID_00000042016553022323201500000006185262967669767609_" gradientUnits="userSpaceOnUse" x1="103.8873" y1="29.9888" x2="126.245" y2="29.9888">
		<stop  offset="0.512" style="stop-color:#F7E6A4"/>
		<stop  offset="1" style="stop-color:#FFF9C7"/>
	</linearGradient>
	<path style="fill:url(#SVGID_00000042016553022323201500000006185262967669767609_);stroke:#000000;stroke-miterlimit:10;" d="
		M126.11,43.71l-1.24-0.39c0,0-5.65-3.32-6.99-4.53s-1.85-5.27-1.85-5.27c0.05-2.42-4.79-8-4.79-8s-6.79-5.16-7.35-9.26
		c3.76,1.29,6.91,1.21,12.13,7.42c1.42-4.1,3.23-3.45,5.3-2.94c0.52,3.32,4.62,10.4,4.62,12.95
		C126.51,34.54,126.11,43.71,126.11,43.71"/>
	
		<linearGradient id="SVGID_00000023275126560191049910000005827025711252597650_" gradientUnits="userSpaceOnUse" x1="151.8997" y1="50.7143" x2="207.7644" y2="50.7143">
		<stop  offset="0.512" style="stop-color:#F7E6A4"/>
		<stop  offset="1" style="stop-color:#FFF9C7"/>
	</linearGradient>
	<path style="fill:url(#SVGID_00000023275126560191049910000005827025711252597650_);stroke:#000000;stroke-miterlimit:10;" d="
		M162.06,32.49c18.78-0.05,25.68,6.9,25.68,6.9s7.25,13.47,7.6,22.79c6.91,12.43,6.91,12.43,6.91,12.43l-3.45-16.57l8.98,5.18
		c0,0-3.22-18.82-10.7-28.31c-1.11-1.21-6.91-9.32-23.13-7.94c-16.23,1.38-20.85,2.07-21.44,4.49s-0.59,2.42-0.59,2.42L162.06,32.49
		z"/>
	
		<linearGradient id="SVGID_00000054948669693938946750000005451211874220721281_" gradientUnits="userSpaceOnUse" x1="71.1019" y1="57.3168" x2="101.8587" y2="57.3168">
		<stop  offset="0.512" style="stop-color:#F7E6A4"/>
		<stop  offset="1" style="stop-color:#FFF9C7"/>
	</linearGradient>
	<path style="fill:url(#SVGID_00000054948669693938946750000005451211874220721281_);stroke:#000000;stroke-miterlimit:10;" d="
		M101.86,40.78c0,0-19.72-4.49-28.01,8.29s4.83,25.55,4.83,25.55s3.2-1.04,2.12-9.32c-0.73-12.43,5.68-9.67,5.68-9.67
		s6.36,0.88,4.98-4.91C90.08,44.92,101.86,40.78,101.86,40.78z"/>
	
		<linearGradient id="SVGID_00000034787052106809446670000007737612673368834962_" gradientUnits="userSpaceOnUse" x1="155.7031" y1="57.3168" x2="186.4599" y2="57.3168">
		<stop  offset="0.512" style="stop-color:#F7E6A4"/>
		<stop  offset="1" style="stop-color:#FFF9C7"/>
	</linearGradient>
	<path style="fill:url(#SVGID_00000034787052106809446670000007737612673368834962_);stroke:#000000;stroke-miterlimit:10;" d="
		M155.7,40.78c0,0,19.72-4.49,28.01,8.29s-4.83,25.55-4.83,25.55s-3.2-1.04-2.12-9.32c0.73-12.43-5.68-9.67-5.68-9.67
		s-6.36,0.88-4.98-4.91S155.7,40.78,155.7,40.78z"/>
	
		<linearGradient id="SVGID_00000152969868089438217200000011700873458251093892_" gradientUnits="userSpaceOnUse" x1="131.5512" y1="29.9028" x2="154.9728" y2="29.9028">
		<stop  offset="0.512" style="stop-color:#F7E6A4"/>
		<stop  offset="1" style="stop-color:#FFF9C7"/>
	</linearGradient>
	<path style="fill:url(#SVGID_00000152969868089438217200000011700873458251093892_);stroke:#000000;stroke-miterlimit:10;" d="
		M141.44,23.51v-7.25c0,0-12.76,13.47-9.29,27.28c9.34-1.73,9.29-13.64,9.29-13.64c1.66-0.66,11.22-11.61,13.53-13.64L141.44,23.51z
		"/>
	
		<linearGradient id="SVGID_00000074434270592656135850000013935458286723481735_" gradientUnits="userSpaceOnUse" x1="61.9828" y1="118.515" x2="96.9528" y2="118.515">
		<stop  offset="0.512" style="stop-color:#F7E6A4"/>
		<stop  offset="1" style="stop-color:#FFF9C7"/>
	</linearGradient>
	<path style="fill:url(#SVGID_00000074434270592656135850000013935458286723481735_);stroke:#000000;stroke-miterlimit:10;" d="
		M73.76,84.74c0,0-2.66,33.47,8.89,46.11c1.61-12.95,2.56-16.23,2.56-16.23s4.14,28.66,11.74,36.6
		c-10.14,5.77-20.56-13.44-23.38-20.01c0,0-4.39-11.93-4.33-16.08c-2.24,2.74-3.73,11.84-6.83,14.94
		c-1.11-13.85,0.12-24.09,1.73-27.77L73.76,84.74z"/>
	
		<linearGradient id="SVGID_00000102508280598735894400000014319572018278295711_" gradientUnits="userSpaceOnUse" x1="159.7292" y1="120.5124" x2="194.6991" y2="120.5124">
		<stop  offset="0.512" style="stop-color:#F7E6A4"/>
		<stop  offset="1" style="stop-color:#FFF9C7"/>
	</linearGradient>
	<path style="fill:url(#SVGID_00000102508280598735894400000014319572018278295711_);stroke:#000000;stroke-miterlimit:10;" d="
		M182.92,86.74c0,0,2.66,33.47-8.89,46.11c-1.61-12.95-2.56-16.23-2.56-16.23s-4.14,28.66-11.74,36.6
		c10.14,5.77,20.56-13.44,23.38-20.01c0,0,4.39-11.92,4.33-16.08c2.24,2.74,3.73,11.84,6.83,14.94c1.11-13.85-0.12-24.09-1.73-27.77
		L182.92,86.74z"/>
	
		<linearGradient id="SVGID_00000182490626987811913990000007807997617643988650_" gradientUnits="userSpaceOnUse" x1="163.5375" y1="166.179" x2="193.569" y2="166.179">
		<stop  offset="0.512" style="stop-color:#F7E6A4"/>
		<stop  offset="1" style="stop-color:#FFF9C7"/>
	</linearGradient>
	<path style="fill:url(#SVGID_00000182490626987811913990000007807997617643988650_);stroke:#000000;stroke-miterlimit:10;" d="
		M190.96,143.81c0,0-25.69,13.83-27.39,31.81c-0.02,0.23-0.03,0.46-0.03,0.69c0.03,9.69,0.86,12.25,0.86,12.25l18.9-22.47
		c0.5-0.36-1.54,7.42-0.69,15.22C199.43,158.36,192.21,143.25,190.96,143.81z"/>
	
		<linearGradient id="SVGID_00000049195764048646411840000000019552554599060629_" gradientUnits="userSpaceOnUse" x1="63.5643" y1="166.179" x2="93.5957" y2="166.179">
		<stop  offset="0.512" style="stop-color:#F7E6A4"/>
		<stop  offset="1" style="stop-color:#FFF9C7"/>
	</linearGradient>
	<path style="fill:url(#SVGID_00000049195764048646411840000000019552554599060629_);stroke:#000000;stroke-miterlimit:10;" d="
		M66.17,143.81c0,0,25.69,13.83,27.39,31.81c0.02,0.23,0.03,0.46,0.03,0.69c-0.03,9.69-0.86,12.25-0.86,12.25l-18.9-22.47
		c-0.5-0.36,1.54,7.42,0.69,15.22C57.7,158.36,64.92,143.25,66.17,143.81z"/>
	
		<linearGradient id="SVGID_00000093873688811815464150000003807782339264592299_" gradientUnits="userSpaceOnUse" x1="202.987" y1="113.4431" x2="214.4793" y2="113.4431">
		<stop  offset="0.512" style="stop-color:#F7E6A4"/>
		<stop  offset="1" style="stop-color:#FFF9C7"/>
	</linearGradient>
	<path style="fill:url(#SVGID_00000093873688811815464150000003807782339264592299_);stroke:#000000;stroke-miterlimit:10;" d="
		M202.99,92.57c0,0,7.14,17.01,4.78,25.94s2.13,15.8,2.13,15.8s2.07-10.14,4.14-16.1s-3.8-16.47-3.8-16.47L202.99,92.57z"/>
	
		<linearGradient id="SVGID_00000054241355972076273810000006484756246537400244_" gradientUnits="userSpaceOnUse" x1="42.6988" y1="112.4163" x2="54.1911" y2="112.4163">
		<stop  offset="0.512" style="stop-color:#F7E6A4"/>
		<stop  offset="1" style="stop-color:#FFF9C7"/>
	</linearGradient>
	<path style="fill:url(#SVGID_00000054241355972076273810000006484756246537400244_);stroke:#000000;stroke-miterlimit:10;" d="
		M54.19,91.55c0,0-7.14,17.01-4.78,25.94c2.36,8.93-2.13,15.8-2.13,15.8s-2.07-10.14-4.14-16.1c-2.07-5.96,3.8-16.47,3.8-16.47
		L54.19,91.55z"/>
	
		<linearGradient id="SVGID_00000166663577028355140430000012503124605096625077_" gradientUnits="userSpaceOnUse" x1="112.9939" y1="170.1353" x2="147.8171" y2="205.3376">
		<stop  offset="0.4747" style="stop-color:#F7E6A4"/>
		<stop  offset="1" style="stop-color:#FFF9C7"/>
	</linearGradient>
	<path style="fill:url(#SVGID_00000166663577028355140430000012503124605096625077_);stroke:#000000;stroke-miterlimit:10;" d="
		M106.97,161.38c0,0-4.39,19.35-1.28,33.28c1.53,9.93,7.6,18.14,7.6,18.14s1.34-4.85,2.21-8.3c3.1,5.99,6.77,7.66,13.42,28.83
		c8.46-22.91,13.95-26.34,15.25-26.96l1.8,6.13c2.68-9.19,2.82-8.08,4.83-15.95c0.7-2.24,1.24-4.28,1.55-5.61
		c2.8-8.42,1.43-15.67,1.22-20.41c-0.07-1.56-0.36-3.1-0.86-4.57l-1.44-4.23c0,0-1.73,6.93-8.86,11.99
		c3.11,11.39-5.99,22.89-5.99,22.89s0.56-4.9,0.81-7.21c0.03-2.62,0-8.03-2.19-15.68c-3.77,10.4-3.61,12.71-5.2,15.7
		c-0.19,0.37-0.72,0.4-0.94,0.05c-4.59-5.9-1.92-9.92-5.02-16.82c-2.78,7.64-3.86,16.86-2.74,24.08c-6.29-2.7-8.1-10.95-6.08-20.24
		l0.94-3.08c-0.7,0-4.52-1.31-6.62-5.89L106.97,161.38z"/>
</g>
<g id="Camada_2">
	<path class="st14" d="M118.58,46.81c-0.3-0.07-0.6-0.11-0.91-0.12c-1.86-0.08-8.86-0.38-9.42-0.33
		c-2.97,0.25-11.87,2.45-17.87,19.48c-3.41,9.13-11.57,12.18-9.14,22.54c2.44,10.36,1.05,13.65,9.14,18.88
		c8.3,5.37,11.18,5.43,11.18,5.43l-4.61,3.02c-0.74,0.41-1.18,1.2-1.12,2.04c0.25,3.83,0.45,14.74,4.91,21.19
		c4.77,6.89,8.61,12.85,12.74,16.29c1.06,0.88,2.37,1.4,3.75,1.48c13.85,0.75,21,0.36,23.91,0.09c1.1-0.1,2.3-0.26,3.09-1.02
		c2.21-2.14,10.09-7.86,13.77-16.84c4.54-11.07,3.05-21.93,3.05-21.93l-2.83-4.75c0,0,17.49-9.9,18.88-21.64
		c0.98-8.32-4.05-15.25-7.07-18.58c-1.48-1.64-2.63-3.54-3.43-5.6c-2-5.14-5.94-14.43-9.06-16.57c-4.37-2.99-15.19-2.53-15.19-2.53
		s-7.46-1.64-12.61,3.98c-0.51,0.56-1.39,0.6-1.93,0.07C123.43,47.15,124.01,48.03,118.58,46.81z"/>
	<polygon points="135.42,156.95 136.69,151.62 138.42,156.95 	"/>
	<polygon points="119.2,156.95 120.46,151.62 122.19,156.95 	"/>
	<path d="M159.9,82.3c0.46-0.59-0.01-0.62-0.2-0.67c-3.12-0.72-3.42-1.46-7.41,0.18c-2.7,2-4.87,2.74-5.82,2.99
		c-0.3,0.08-0.62-0.03-0.8-0.28l-3.5-2.75c0,0,1.34,2.18,2.03,4.32c0.08,2,0.26,1.53,0.26,4.75s-0.57,7.43-0.57,7.43
		s0.71-0.41,2.6-5.02c0.08-0.2,0.29-3.92,0.31-4.18c1.68,0.18,2.57,0.2,3.01,0.14c1.1-0.15,2.59-0.6,2.67-0.63
		c1.07-0.43,1.75-0.2,5.39-3.81L159.9,82.3z"/>
	<path d="M98.29,82.3c-0.46-0.59,0.01-0.62,0.2-0.67c3.12-0.72,3.42-1.46,7.41,0.18c2.7,2,4.87,2.74,5.82,2.99
		c0.3,0.08,0.62-0.03,0.8-0.28l3.5-2.75c0,0-1.34,2.18-2.03,4.32c-0.08,2-0.26,1.53-0.26,4.75s0.57,7.43,0.57,7.43
		s-0.71-0.41-2.6-5.02c-0.08-0.2-0.29-3.92-0.31-4.18c-1.68,0.18-2.57,0.2-3.01,0.14c-1.1-0.15-2.59-0.6-2.67-0.63
		c-1.07-0.43-1.75-0.2-5.39-3.81L98.29,82.3z"/>
	<path d="M117.1,112.5c0.82,1.12,5.78,7.47,10.91,11.37c0.47,0.25,1.04,0.18,1.46-0.14c9.8-6.92,11.64-9.57,11.9-10.8
		c0.12-0.18-0.07-0.41-0.27-0.33c-2.2,0.89-8.5,2.83-12.28,2.77c-1.99-0.03-10.42-2.55-11.66-2.94
		C117.11,112.4,117.07,112.46,117.1,112.5z"/>
	<path class="st15" d="M129.67,133.2"/>
	<path class="st15" d="M104.32,144.14c1.73-1.79,10.21-10.17,23.74-10.56c15.63-0.45,25.39,10.12,26.76,11.65"/>
	<line class="st15" x1="128.59" y1="123.78" x2="128.7" y2="133.16"/>
	<g>
		<path d="M96.72,127c3.83-0.35,7.67-2.06,10.18-5.03c0.05-0.06,0.15,0.01,0.1,0.08c-0.6,0.79-1.24,1.57-2.01,2.22
			c-2.3,2.01-5.16,3.29-8.18,3.81c-0.29,0.05-0.57-0.15-0.62-0.45C96.14,127.3,96.39,127.01,96.72,127L96.72,127z"/>
	</g>
	<g>
		<path d="M160.64,128c-4.02-0.3-8.27-2.27-10.35-5.75c0.03-0.02,0.07-0.01,0.09,0.01c1.93,2.27,4.49,3.94,7.44,4.39
			c0.96,0.17,1.93,0.21,2.94,0.28c0.3,0.02,0.52,0.28,0.5,0.57C161.24,127.81,160.95,128.05,160.64,128L160.64,128z"/>
	</g>
	<g>
		<path d="M98.54,133.84c3.38-0.29,6.81-1.7,9.1-4.27c0.04-0.05,0.13,0.01,0.09,0.07c-0.55,0.68-1.13,1.36-1.83,1.91
			c-2.08,1.72-4.62,2.79-7.28,3.23c-0.26,0.04-0.5-0.14-0.54-0.4C98.04,134.11,98.26,133.85,98.54,133.84L98.54,133.84z"/>
	</g>
	<g>
		<path d="M158.59,136.02c-3.47-0.6-7.12-2.29-9.1-5.22c1.23,1.16,2.62,2.36,4.26,3.01c1.55,0.69,3.27,1.15,4.95,1.27
			C159.32,135.14,159.22,136.12,158.59,136.02L158.59,136.02z"/>
	</g>
	<path class="st15" d="M149.46,140.45c2.68,1.64,5.35,3.98,3.8,6.39"/>
	<path class="st15" d="M149.71,140.63c2,1.02,4.45,4.75,6,2.78"/>
	<path class="st15" d="M109.63,139.66c-2.78,1.84-5.43,4.3-3.88,6.5"/>
	<path class="st15" d="M109.38,139.84c-2,1.02-4.55,4.77-6.1,2.8"/>
	<path class="st15" d="M128.62,126.2c-0.21,5.87,0.17,7.18-2.67,7.51"/>
	<g>
		<path d="M128.69,126.13c0.3,1.53-0.17,7.1,1.93,6.97c0,0,0.04,1,0.04,1c-2.76-0.28-2.05-3.92-2.08-5.86
			c0.02-0.7,0.07-1.4-0.05-2.09C128.53,126.15,128.69,126.13,128.69,126.13L128.69,126.13z"/>
	</g>
</g>
</svg>
